<?xml version="1.0" standalone="no"?>
<!DOCTYPE svg PUBLIC "-//W3C//DTD SVG 20010904//EN"
 "http://www.w3.org/TR/2001/REC-SVG-20010904/DTD/svg10.dtd">
<svg version="1.0" xmlns="http://www.w3.org/2000/svg"
 width="196.000000pt" height="197.000000pt" viewBox="0 0 196.000000 197.000000"
 preserveAspectRatio="xMidYMid meet">

<g transform="translate(0.000000,197.000000) scale(0.100000,-0.100000)"
fill="#d94748" stroke="none">
<path d="M0 985 l0 -985 980 0 980 0 0 985 0 985 -980 0 -980 0 0 -985z m1400
400 c58 -30 61 -50 58 -321 l-3 -246 -33 -29 -32 -29 -145 0 -145 0 0 -45 0
-45 64 0 c68 0 76 -6 76 -56 l0 -24 -255 0 -255 0 0 24 c0 50 8 56 76 56 l64
0 0 45 0 45 -145 0 -145 0 -32 29 -33 29 0 260 c0 246 1 261 20 282 11 12 29
26 40 31 11 4 195 8 408 8 328 1 393 -1 417 -14z"/>
<path d="M632 1278 c-13 -13 -18 -361 -6 -392 5 -14 46 -16 359 -16 313 0 354
2 359 16 12 31 7 379 -6 392 -17 17 -689 17 -706 0z"/>
</g>
</svg>
