<?xml version="1.0" standalone="no"?>
<!DOCTYPE svg PUBLIC "-//W3C//DTD SVG 20010904//EN"
 "http://www.w3.org/TR/2001/REC-SVG-20010904/DTD/svg10.dtd">
<svg version="1.0" xmlns="http://www.w3.org/2000/svg"
 width="197.000000pt" height="197.000000pt" viewBox="0 0 197.000000 197.000000"
 preserveAspectRatio="xMidYMid meet">

<g transform="translate(0.000000,197.000000) scale(0.100000,-0.100000)"
fill="#5094f2" stroke="none">
<path d="M0 985 l0 -985 985 0 985 0 0 985 0 985 -985 0 -985 0 0 -985z m1282
484 c109 -68 128 -88 128 -137 0 -35 -64 -152 -82 -152 -16 0 -318 192 -318
202 0 17 68 116 91 132 41 28 76 20 181 -45z m-137 -236 c85 -53 155 -100 155
-104 0 -6 -284 -466 -296 -478 -5 -5 -323 193 -324 201 0 13 293 478 302 478
4 0 78 -44 163 -97z m-332 -547 c81 -50 147 -93 147 -96 0 -3 -30 -19 -66 -34
-64 -28 -67 -28 -77 -11 -28 51 -103 95 -159 95 -16 0 -18 10 -18 76 0 57 3
73 13 68 6 -4 78 -48 160 -98z m-105 -91 c42 -18 82 -53 82 -72 0 -10 -118
-73 -136 -73 -2 0 -4 36 -4 80 0 48 4 80 10 80 6 0 27 -7 48 -15z"/>
<path d="M1014 1212 c-5 -4 -60 -88 -122 -186 -92 -149 -109 -182 -101 -198 6
-11 18 -18 27 -16 15 3 224 320 238 361 3 10 0 24 -6 32 -14 17 -20 18 -36 7z"/>
<path d="M1103 1098 c-16 -24 -69 -107 -118 -186 -82 -134 -87 -145 -71 -160
12 -13 20 -14 33 -6 25 16 234 354 231 373 -2 9 -13 17 -25 19 -16 2 -29 -8
-50 -40z"/>
</g>
</svg>
